#!OML:ASF G:\ViconDB\ViconDB\414\test\team2\shane.ASF
:FULLY-SPECIFIED
:DEGREES
235
root 1.87605 16.2687 2.07262 -7.02822 12.7401 -3.24476
lowerback 9.44965 -4.26302 -0.228339
upperback 5.27828 -5.63556 2.95488
thorax 0.532646 -2.86818 3.66687
lowerneck -11.0883 -2.58019 -10.9285
upperneck 20.9672 -0.768372 -2.67798
head 8.48048 -1.48359 0.824288
rclavicle -5.05907e-014 1.23246e-014
rhumerus -43.2835 -1.33405 -42.2101
rradius 135.011
rwrist 148.965
rhand -14.0111 5.59367
rfingers 7.12502
rthumb 12.1184 -24.0354
lclavicle -5.05907e-014 1.23246e-014
lhumerus -43.7413 -28.2947 102.731
lradius 40.0604
lwrist -17.5942
lhand -37.1853 4.62569
lfingers 7.12502
lthumb -10.2534 34.3558
rfemur -22.5325 -16.2207 15.2249
rtibia 33.9141
rfoot -19.9978 -4.65723
rtoes -16.8936
lfemur 31.7704 -6.07526 -9.0997
ltibia -1.27222e-014
lfoot -23.1769 -7.90979
ltoes -20.0691
236
root 1.83638 16.2909 2.30322 -6.91674 12.7286 -3.4456
lowerback 9.29707 -4.27649 0.139363
upperback 5.11388 -5.62278 3.06587
thorax 0.419376 -2.85258 3.57228
lowerneck -10.8603 -2.48902 -10.7193
upperneck 20.7104 -0.711684 -2.76632
head 8.3449 -1.4355 0.770548
rclavicle -6.81831e-014 4.25399e-014
rhumerus -43.2835 -1.33405 -42.2101
rradius 135.011
rwrist 148.965
rhand -14.0111 5.59367
rfingers 7.12502
rthumb 12.1184 -24.0354
lclavicle -6.81831e-014 4.25399e-014
lhumerus -44.1306 -28.2019 103.031
lradius 39.7031
lwrist -18.2723
lhand -37.7796 5.03899
lfingers 7.12502
lthumb -10.8267 34.7399
rfemur -23.0644 -17.5963 16.0654
rtibia 34.9251
rfoot -16.5336 -4.46808
rtoes -16.0296
lfemur 32.2946 -6.32649 -8.676
ltibia -2.22639e-014
lfoot -22.5663 -8.20352
ltoes -21.2662
237
root 1.78976 16.2981 2.53026 -6.75787 12.5975 -3.83937
lowerback 9.06028 -4.28223 0.587398
upperback 4.92456 -5.59569 3.22336
thorax 0.323028 -2.82963 3.47425
lowerneck -10.6994 -2.39656 -10.0044
upperneck 20.8207 -0.588641 -3.46952
head 8.34056 -1.3951 0.43331
rclavicle -1.09332e-015 -7.95139e-015
rhumerus -40.4365 -5.54393 -41.4564
rradius 137.242
rwrist 147.076
rhand -11.5495 7.78527
rfingers 7.12502
rthumb 14.4911 -21.6887
lclavicle -1.09332e-015 -7.95139e-015
lhumerus -44.5576 -28.3952 103.539
lradius 39.8404
lwrist -15.9084
lhand -37.3861 5.25396
lfingers 7.12502
lthumb -10.4471 34.9744
rfemur -23.2602 -17.5782 16.8241
rtibia 35.8836
rfoot -15.2144 -3.98241
rtoes -13.0596
lfemur 32.7449 -6.47161 -8.03019
ltibia -1.59028e-014
lfoot -21.6723 -8.09993
ltoes -23.6672
238
root 1.74091 16.313 2.75471 -6.5904 12.2374 -4.338
lowerback 8.65469 -4.20804 1.19182
upperback 4.88955 -5.46316 3.42241
thorax 0.464613 -2.7539 3.30301
lowerneck -11.1845 -2.35335 -9.92477
upperneck 21.6041 -0.454948 -3.37546
head 8.69172 -1.35725 0.456857
rclavicle 1.0297e-013 -4.85035e-014
rhumerus -38.7597 -6.86546 -41.907
rradius 138.419
rwrist 149.951
rhand -11.1598 8.27573
rfingers 7.12502
rthumb 14.8665 -21.1709
lclavicle 1.0297e-013 -4.85035e-014
lhumerus -44.2828 -28.0607 103.405
lradius 38.8543
lwrist -17.0307
lhand -37.9187 5.33424
lfingers 7.12502
lthumb -10.9608 35.0281
rfemur -23.2079 -16.5802 17.5546
rtibia 36.6784
rfoot -15.1196 -4.34737
rtoes -12.9039
lfemur 33.1392 -6.45414 -7.13048
ltibia 4.13472e-014
lfoot -20.4056 -8.6509
ltoes -25.382
239
root 1.68625 16.331 2.97346 -6.39803 11.8197 -4.8532
lowerback 8.58904 -4.10929 1.52503
upperback 4.64589 -5.29976 3.74417
thorax 0.241189 -2.66812 3.44499
lowerneck -11.4476 -2.30701 -9.72169
upperneck 22.5869 -0.292087 -3.58397
head 9.07551 -1.33335 0.361777
rclavicle 1.25234e-014 2.46493e-014
rhumerus -37.1159 -8.2107 -42.2337
rradius 138.522
rwrist 149.01
rhand -11.8647 7.95274
rfingers 7.12502
rthumb 14.1874 -21.5428
lclavicle 1.25234e-014 2.46493e-014
lhumerus -44.0444 -27.2653 103.336
lradius 37.445
lwrist -18.5778
lhand -38.6517 5.30377
lfingers 7.12502
lthumb -11.6678 34.9589
rfemur -23.0556 -15.577 18.3907
rtibia 37.3125
rfoot -15.1528 -3.97981
rtoes -11.8499
lfemur 33.4848 -6.3816 -6.19066
ltibia 3.81667e-014
lfoot -18.6396 -9.24339
ltoes -27.4681
